<svg width="120" height="41" viewBox="0 0 120 41" fill="none" xmlns="http://www.w3.org/2000/svg">
<rect x="0.5" y="0.939941" width="119" height="39" rx="5.5" fill="#232425"/>
<rect x="0.5" y="0.939941" width="119" height="39" rx="5.5" stroke="white"/>
<path d="M81.5257 19.6408V21.9318H80.0896V23.4343H81.5257V28.5392C81.5257 30.2824 82.3143 30.9797 84.2981 30.9797C84.6468 30.9797 84.9788 30.9382 85.2693 30.8884V29.4025C85.0203 29.4274 84.8626 29.444 84.5887 29.444C83.7005 29.444 83.3104 29.029 83.3104 28.0827V23.4343H85.2693V21.9318H83.3104V19.6408H81.5257Z" fill="white"/>
<path d="M90.3232 31.1042C92.9628 31.1042 94.5815 29.3361 94.5815 26.4059C94.5815 23.4924 92.9545 21.716 90.3232 21.716C87.6835 21.716 86.0566 23.4924 86.0566 26.4059C86.0566 29.3361 87.6752 31.1042 90.3232 31.1042ZM90.3232 29.5187C88.7709 29.5187 87.8994 28.3815 87.8994 26.4059C87.8994 24.447 88.7709 23.3014 90.3232 23.3014C91.8671 23.3014 92.747 24.447 92.747 26.4059C92.747 28.3732 91.8671 29.5187 90.3232 29.5187Z" fill="white"/>
<path d="M95.9664 30.9299H97.7511V25.5925C97.7511 24.3224 98.7056 23.4675 100.059 23.4675C100.374 23.4675 100.905 23.5256 101.055 23.5754V21.8156C100.864 21.7658 100.524 21.7409 100.258 21.7409C99.0792 21.7409 98.0748 22.3884 97.8175 23.2765H97.6846V21.8903H95.9664V30.9299Z" fill="white"/>
<path d="M105.486 23.235C106.806 23.235 107.669 24.1564 107.711 25.5759H103.145C103.245 24.1647 104.166 23.235 105.486 23.235ZM107.702 28.4894C107.37 29.195 106.632 29.5851 105.552 29.5851C104.125 29.5851 103.203 28.5807 103.145 26.9953V26.8957H109.529V26.2731C109.529 23.4343 108.009 21.716 105.494 21.716C102.946 21.716 101.327 23.5505 101.327 26.4391C101.327 29.3278 102.913 31.1042 105.503 31.1042C107.57 31.1042 109.014 30.1081 109.421 28.4894H107.702Z" fill="white"/>
<path d="M69.8221 27.5917C69.9598 29.8114 71.8095 31.231 74.5626 31.231C77.505 31.231 79.3462 29.7426 79.3462 27.368C79.3462 25.501 78.2966 24.4686 75.7499 23.875L74.382 23.5394C72.7645 23.1609 72.1106 22.6533 72.1106 21.7671C72.1106 20.6487 73.1259 19.9174 74.6487 19.9174C76.0941 19.9174 77.0921 20.6315 77.2727 21.7757H79.1483C79.0365 19.6851 77.1953 18.2139 74.6745 18.2139C71.9644 18.2139 70.1576 19.6851 70.1576 21.8962C70.1576 23.7201 71.1815 24.8042 73.427 25.329L75.0272 25.7161C76.6705 26.1033 77.3932 26.6711 77.3932 27.6175C77.3932 28.7188 76.2575 29.5189 74.7089 29.5189C73.0484 29.5189 71.8955 28.7704 71.7321 27.5917H69.8221Z" fill="white"/>
<path d="M51.3348 21.7409C50.1063 21.7409 49.0437 22.3552 48.4959 23.3845H48.3631V21.8903H46.6448V33.9347H48.4295V29.5602H48.5706C49.0437 30.5148 50.0647 31.0793 51.3514 31.0793C53.6341 31.0793 55.0867 29.278 55.0867 26.4059C55.0867 23.5339 53.6341 21.7409 51.3348 21.7409ZM50.8284 29.4772C49.3343 29.4772 48.3963 28.2985 48.3963 26.4142C48.3963 24.5217 49.3343 23.3429 50.8367 23.3429C52.3475 23.3429 53.2522 24.4968 53.2522 26.4059C53.2522 28.3234 52.3475 29.4772 50.8284 29.4772Z" fill="white"/>
<path d="M61.3316 21.7409C60.103 21.7409 59.0405 22.3552 58.4927 23.3845H58.3599V21.8903H56.6416V33.9347H58.4263V29.5602H58.5674C59.0405 30.5148 60.0615 31.0793 61.3482 31.0793C63.6309 31.0793 65.0835 29.278 65.0835 26.4059C65.0835 23.5339 63.6309 21.7409 61.3316 21.7409ZM60.8252 29.4772C59.3311 29.4772 58.3931 28.2985 58.3931 26.4142C58.3931 24.5217 59.3311 23.3429 60.8335 23.3429C62.3443 23.3429 63.249 24.4968 63.249 26.4059C63.249 28.3234 62.3443 29.4772 60.8252 29.4772Z" fill="white"/>
<path d="M43.4428 30.9299H45.4905L41.008 18.515H38.9346L34.4521 30.9299H36.431L37.5752 27.6347H42.3072L43.4428 30.9299ZM39.8724 20.7691H40.0186L41.8168 26.0173H38.0656L39.8724 20.7691Z" fill="white"/>
<path d="M35.6514 9.15088V15.1399H37.8137C39.5984 15.1399 40.6318 14.04 40.6318 12.1267C40.6318 10.2424 39.5901 9.15088 37.8137 9.15088H35.6514ZM36.5811 9.99756H37.71C38.9509 9.99756 39.6855 10.7861 39.6855 12.1392C39.6855 13.5129 38.9634 14.2932 37.71 14.2932H36.5811V9.99756Z" fill="white"/>
<path d="M43.7969 15.2271C45.1167 15.2271 45.9261 14.343 45.9261 12.8779C45.9261 11.4211 45.1126 10.533 43.7969 10.533C42.4771 10.533 41.6636 11.4211 41.6636 12.8779C41.6636 14.343 42.4729 15.2271 43.7969 15.2271ZM43.7969 14.4343C43.0208 14.4343 42.585 13.8657 42.585 12.8779C42.585 11.8984 43.0208 11.3257 43.7969 11.3257C44.5689 11.3257 45.0088 11.8984 45.0088 12.8779C45.0088 13.8616 44.5689 14.4343 43.7969 14.4343Z" fill="white"/>
<path d="M52.8182 10.6201H51.9259L51.1207 14.0691H51.0501L50.1205 10.6201H49.2655L48.3358 14.0691H48.2694L47.4601 10.6201H46.5553L47.8004 15.1399H48.7176L49.6473 11.8113H49.7179L50.6517 15.1399H51.5772L52.8182 10.6201Z" fill="white"/>
<path d="M53.8458 15.1399H54.7382V12.4961C54.7382 11.7905 55.1574 11.3506 55.8173 11.3506C56.4772 11.3506 56.7926 11.7117 56.7926 12.438V15.1399H57.685V12.2139C57.685 11.1389 57.1288 10.533 56.1203 10.533C55.4396 10.533 54.9914 10.8359 54.7714 11.3381H54.705V10.6201H53.8458V15.1399Z" fill="white"/>
<path d="M59.0903 15.1399H59.9826V8.8562H59.0903V15.1399Z" fill="white"/>
<path d="M63.3386 15.2271C64.6584 15.2271 65.4678 14.343 65.4678 12.8779C65.4678 11.4211 64.6543 10.533 63.3386 10.533C62.0188 10.533 61.2053 11.4211 61.2053 12.8779C61.2053 14.343 62.0146 15.2271 63.3386 15.2271ZM63.3386 14.4343C62.5625 14.4343 62.1267 13.8657 62.1267 12.8779C62.1267 11.8984 62.5625 11.3257 63.3386 11.3257C64.1106 11.3257 64.5505 11.8984 64.5505 12.8779C64.5505 13.8616 64.1106 14.4343 63.3386 14.4343Z" fill="white"/>
<path d="M68.1265 14.4634C67.6409 14.4634 67.2881 14.2268 67.2881 13.8201C67.2881 13.4216 67.5704 13.21 68.1929 13.1685L69.2969 13.0979V13.4756C69.2969 14.0359 68.7989 14.4634 68.1265 14.4634ZM67.8982 15.2146C68.4917 15.2146 68.9856 14.9573 69.2554 14.5049H69.326V15.1399H70.1851V12.052C70.1851 11.0974 69.5459 10.533 68.4129 10.533C67.3877 10.533 66.6573 11.031 66.566 11.8071H67.4292C67.5289 11.4875 67.8733 11.3049 68.3714 11.3049C68.9815 11.3049 69.2969 11.5747 69.2969 12.052V12.4421L68.0726 12.5127C66.9976 12.5791 66.3916 13.0481 66.3916 13.8616C66.3916 14.6875 67.0267 15.2146 67.8982 15.2146Z" fill="white"/>
<path d="M73.2132 15.2146C73.8358 15.2146 74.3629 14.9199 74.6327 14.426H74.7032V15.1399H75.5582V8.8562H74.6659V11.3381H74.5995C74.3546 10.8401 73.8316 10.5454 73.2132 10.5454C72.0719 10.5454 71.3373 11.4502 71.3373 12.8779C71.3373 14.3098 72.0636 15.2146 73.2132 15.2146ZM73.4664 11.3464C74.2135 11.3464 74.6825 11.9399 74.6825 12.8821C74.6825 13.8284 74.2176 14.4136 73.4664 14.4136C72.711 14.4136 72.2586 13.8367 72.2586 12.8779C72.2586 11.9275 72.7152 11.3464 73.4664 11.3464Z" fill="white"/>
<path d="M81.3447 15.2271C82.6645 15.2271 83.4738 14.343 83.4738 12.8779C83.4738 11.4211 82.6604 10.533 81.3447 10.533C80.0249 10.533 79.2114 11.4211 79.2114 12.8779C79.2114 14.343 80.0207 15.2271 81.3447 15.2271ZM81.3447 14.4343C80.5686 14.4343 80.1328 13.8657 80.1328 12.8779C80.1328 11.8984 80.5686 11.3257 81.3447 11.3257C82.1166 11.3257 82.5566 11.8984 82.5566 12.8779C82.5566 13.8616 82.1166 14.4343 81.3447 14.4343Z" fill="white"/>
<path d="M84.655 15.1399H85.5474V12.4961C85.5474 11.7905 85.9666 11.3506 86.6265 11.3506C87.2864 11.3506 87.6018 11.7117 87.6018 12.438V15.1399H88.4941V12.2139C88.4941 11.1389 87.938 10.533 86.9294 10.533C86.2488 10.533 85.8005 10.8359 85.5806 11.3381H85.5142V10.6201H84.655V15.1399Z" fill="white"/>
<path d="M92.6039 9.49536V10.6409H91.8858V11.3921H92.6039V13.9446C92.6039 14.8162 92.9981 15.1648 93.9901 15.1648C94.1644 15.1648 94.3304 15.144 94.4757 15.1191V14.3762C94.3512 14.3887 94.2723 14.397 94.1353 14.397C93.6913 14.397 93.4962 14.1895 93.4962 13.7163V11.3921H94.4757V10.6409H93.4962V9.49536H92.6039Z" fill="white"/>
<path d="M95.6735 15.1399H96.5658V12.5002C96.5658 11.8154 96.9726 11.3547 97.703 11.3547C98.3339 11.3547 98.6701 11.72 98.6701 12.4421V15.1399H99.5624V12.2222C99.5624 11.1472 98.9689 10.5371 98.006 10.5371C97.3253 10.5371 96.848 10.8401 96.6281 11.3464H96.5575V8.8562H95.6735V15.1399Z" fill="white"/>
<path d="M102.781 11.2925C103.441 11.2925 103.873 11.7532 103.894 12.4629H101.611C101.661 11.7573 102.122 11.2925 102.781 11.2925ZM103.89 13.9197C103.724 14.2725 103.354 14.4675 102.815 14.4675C102.101 14.4675 101.64 13.9653 101.611 13.1726V13.1228H104.803V12.8115C104.803 11.3921 104.043 10.533 102.786 10.533C101.511 10.533 100.702 11.4502 100.702 12.8945C100.702 14.3389 101.495 15.2271 102.79 15.2271C103.823 15.2271 104.545 14.729 104.749 13.9197H103.89Z" fill="white"/>
<path d="M24.769 20.7408C24.7907 19.0598 25.6934 17.4692 27.1256 16.5887C26.2221 15.2984 24.7088 14.4803 23.1344 14.431C21.4552 14.2548 19.8272 15.4358 18.9715 15.4358C18.0992 15.4358 16.7817 14.4485 15.363 14.4777C13.5137 14.5375 11.7898 15.5888 10.8901 17.2056C8.95607 20.554 10.3987 25.475 12.2513 28.1817C13.1782 29.507 14.2615 30.9875 15.6789 30.935C17.066 30.8774 17.584 30.0505 19.2583 30.0505C20.9171 30.0505 21.4031 30.935 22.8493 30.9016C24.3377 30.8774 25.2754 29.5703 26.1698 28.2324C26.8358 27.2881 27.3483 26.2444 27.6882 25.1399C25.9391 24.4001 24.771 22.6399 24.769 20.7408Z" fill="white"/>
<path d="M22.0373 12.651C22.8489 11.6768 23.2487 10.4246 23.1518 9.1604C21.912 9.29062 20.7668 9.88318 19.9443 10.82C19.14 11.7353 18.7214 12.9655 18.8006 14.1814C20.0408 14.1942 21.2601 13.6177 22.0373 12.651Z" fill="white"/>
</svg>
