<svg width="16" height="24" viewBox="0 0 16 24" fill="none" xmlns="http://www.w3.org/2000/svg">
<g id="Absher_indvidual_logo" clip-path="url(#clip0_2130_80293)">
<path id="Vector" d="M13.2076 22.1371C13.2076 21.6279 12.795 21.2152 12.2857 21.2152C11.7764 21.2152 11.3638 21.6279 11.3638 22.1371C11.3638 22.6464 11.7764 23.0591 12.2857 23.0591C12.795 23.0591 13.2076 22.6464 13.2076 22.1371Z" fill="#9B773A"/>
<path id="Vector_2" d="M10.4552 5.52424C10.4552 5.01417 10.0418 4.60046 9.53144 4.60046C9.02111 4.60046 8.60767 5.01417 8.60767 5.52424C8.60767 6.03431 9.02111 6.44802 9.53144 6.44802C10.0418 6.44802 10.4552 6.03431 10.4552 5.52424Z" fill="#9B773A"/>
<path id="Vector_3" d="M7.68398 5.52424C7.68398 5.01417 7.27054 4.60046 6.7602 4.60046C6.24987 4.60046 5.83643 5.01417 5.83643 5.52424C5.83643 6.03431 6.24987 6.44802 6.7602 6.44802C7.27054 6.44802 7.68398 6.03431 7.68398 5.52424Z" fill="#9B773A"/>
<path id="Vector_4" d="M4.91252 5.52424C4.91252 5.01417 4.49907 4.60046 3.98874 4.60046C3.4784 4.60046 3.0647 5.01417 3.0647 5.52424C3.0647 6.03431 3.4784 6.44802 3.98874 6.44802C4.49907 6.44802 4.91252 6.03431 4.91252 5.52424Z" fill="#9B773A"/>
<path id="Vector_5" d="M14.1504 1.84756C14.1504 0.827149 14.9775 0 15.9979 0V1.84756H14.1504Z" fill="#9B773A"/>
<path id="Vector_6" d="M3.73775 7.37172C3.73326 7.37172 3.72877 7.37225 3.72455 7.37225C3.36074 7.37912 3.06742 7.66689 3.06531 8.02225C3.06531 8.02357 3.06531 8.02489 3.06531 8.02647V20.3046H4.2399C4.24438 20.3046 4.24887 20.3041 4.2531 20.3041C4.61717 20.2972 4.91022 20.0094 4.9126 19.6538C4.9126 19.6525 4.9126 19.6512 4.9126 19.6499V7.37146H3.73801L3.73775 7.37172Z" fill="#9B773A"/>
<path id="Vector_7" d="M6.50911 7.37172C6.50462 7.37172 6.50013 7.37225 6.49591 7.37225C6.13183 7.37912 5.83878 7.66689 5.83667 8.02225C5.83667 8.02357 5.83667 8.02489 5.83667 8.02647V20.3046H7.01152C7.01601 20.3046 7.02024 20.3041 7.02472 20.3041C7.38853 20.2972 7.68185 20.0092 7.68423 19.6538C7.68423 19.6525 7.68423 19.6512 7.68423 19.6499V7.37146H6.50964L6.50911 7.37172Z" fill="#9B773A"/>
<path id="Vector_8" d="M9.28073 7.37172C9.27625 7.37172 9.27202 7.37225 9.26753 7.37225C8.90346 7.37938 8.61041 7.66715 8.60803 8.02225C8.60803 8.02357 8.60803 8.02489 8.60803 8.02647V20.3046H9.78262C9.78711 20.3046 9.79133 20.3041 9.79582 20.3041C10.1599 20.2972 10.4529 20.0092 10.4553 19.6538C10.4553 19.6525 10.4553 19.6512 10.4553 19.6499V7.37146H9.28073V7.37172Z" fill="#9B773A"/>
<path id="Vector_9" d="M12.052 4.60046C12.0475 4.60046 12.0433 4.60099 12.039 4.60099C11.6805 4.60812 11.3912 4.90197 11.3803 5.26789C11.3803 5.27501 11.3793 5.28214 11.3793 5.28927V20.3049H12.5539C12.5584 20.3049 12.5626 20.3044 12.5668 20.3042C12.9253 20.2973 13.2147 20.0032 13.2258 19.6373C13.2258 19.6301 13.2268 19.623 13.2268 19.6159V4.60046H12.0522H12.052Z" fill="#9B773A"/>
<path id="Vector_10" d="M14.8255 2.77051C14.8213 2.77051 14.8168 2.77104 14.8126 2.77104C14.4549 2.77816 14.1658 3.07254 14.1539 3.44004C14.1539 3.44796 14.1528 3.45562 14.1528 3.4638V20.3056H15.3274C15.3319 20.3056 15.3359 20.3051 15.3404 20.3049C15.6981 20.298 15.9869 20.0034 15.9991 19.6359C15.9991 19.6279 16.0001 19.6203 16.0001 19.6124V2.77051H14.8255Z" fill="#9B773A"/>
<path id="Vector_11" d="M0.966423 7.3717C0.962199 7.3717 0.957975 7.37223 0.953751 7.3725C0.594959 7.37962 0.305602 7.67321 0.294777 8.0386H0.294513C0.294513 8.04573 0.293457 8.05259 0.293457 8.05972V24H1.46805C1.47227 24 1.47649 23.9994 1.48072 23.9992C1.83925 23.992 2.12887 23.6985 2.13969 23.3328C2.13969 23.3257 2.14075 23.3188 2.14075 23.3119V7.3717H0.966423Z" fill="#9B773A"/>
</g>
<defs>
<clipPath id="clip0_2130_80293">
<rect width="15.7066" height="24" fill="white" transform="translate(0.293457)"/>
</clipPath>
</defs>
</svg>
