<svg width="40" height="40" viewBox="0 0 40 40" fill="none" xmlns="http://www.w3.org/2000/svg">
    <rect width="40" height="40" rx="20" fill="#12633E" />
    <g clip-path="url(#clip0_572_3567)">
        <path
            d="M20.49 21L19.56 19.14C19.19 18.4 19.49 17.5 20.23 17.13L20.49 17L26.22 22.46C26.72 22.93 27 23.59 27 24.27V29.5C27 30.88 25.88 32 24.5 32H13.5C12.95 32 12.5 31.55 12.5 31C12.5 30.45 12.95 30 13.5 30H18V29H12C11.45 29 11 28.55 11 28C11 27.45 11.45 27 12 27H18V26H11C10.45 26 10 25.55 10 25C10 24.45 10.45 24 11 24H18V23H12.5C11.95 23 11.5 22.55 11.5 22C11.5 21.45 11.95 21 12.5 21H20.49ZM19.78 15.12C18.94 15.52 18.61 15.74 18.15 16.31L15.45 13.46C15.07 13.06 15.09 12.43 15.49 12.05C15.89 11.67 16.52 11.69 16.9 12.09L19.78 15.12ZM17.64 17.21C17.41 17.76 17.35 18.45 17.44 19H16.58L14.31 16.61C13.93 16.21 13.94 15.58 14.35 15.2C14.75 14.82 15.38 14.84 15.76 15.24L17.64 17.21ZM28.33 21.91L29.21 21.08C29.71 20.61 30 19.95 30 19.26V11.35L29.73 11.25C28.95 10.97 28.09 11.37 27.81 12.15L27.1 14.11L21.6 8.31C21.22 7.91 20.59 7.89 20.19 8.27C19.79 8.65 19.77 9.28 20.15 9.68L23.94 13.67L23.21 14.36L18.39 9.28C18.01 8.88 17.38 8.86 16.98 9.24C16.58 9.62 16.56 10.25 16.94 10.65L20.72 14.63L23.38 17L26.99 20.43L27.6 21.01C27.89 21.28 28.13 21.58 28.33 21.91Z"
            fill="white" />
    </g>
    <defs>
        <clipPath id="clip0_572_3567">
            <rect width="24" height="24" fill="white" transform="translate(8 8)" />
        </clipPath>
    </defs>
</svg>